<svg width="154px" height="22px" viewBox="0 0 154 22" version="1.1" xmlns="http://www.w3.org/2000/svg"
>
    <defs>
        <filter id="filter-1">
            <feColorMatrix in="SourceGraphic" type="matrix"
                           values="0 0 0 0 0.370932 0 0 0 0 0.386043 0 0 0 0 0.452531 0 0 0 1.000000 0"></feColorMatrix>
        </filter>
        <polygon id="path-2" points="0.188 0.4475 54.1175 0.4475 54.1175 21.4705 0.188 21.4705"></polygon>
    </defs>
    <g stroke="none" stroke-width="1" fill="none" fill-rule="evenodd">
        <g transform="translate(-883.000000, -4163.000000)">
            <g transform="translate(0.000000, 3501.000000)" filter="url(#filter-1)">
                <g transform="translate(883.000000, 662.000000)">
                    <path d="M6.4325,13.7325 L13.039,13.7325 L9.7345,4.7255 L6.4325,13.7325 Z M0.175,21.041 C0.0575,20.9255 0,20.7775 0,20.6035 L0.0575,20.34 L7.076,1.4795 C7.2695,0.9935 7.62,0.7485 8.129,0.7485 L11.3435,0.7485 C11.8505,0.7485 12.203,0.9935 12.3965,1.4795 L19.414,20.34 L19.4735,20.6035 C19.4735,20.7775 19.408,20.9255 19.283,21.041 C19.1555,21.16 19.0135,21.217 18.8585,21.217 L16.257,21.217 C15.8465,21.217 15.5635,21.031 15.408,20.66 L14.0615,17.123 L5.409,17.123 L4.0625,20.66 C3.908,21.031 3.626,21.217 3.215,21.217 L0.6125,21.217 C0.4385,21.217 0.291,21.16 0.175,21.041 L0.175,21.041 Z"
                          fill="#1C2933"></path>
                    <path d="M43.756,21.0115 C43.619,20.877 43.551,20.711 43.551,20.5155 L43.551,1.4795 C43.551,1.266 43.6145,1.0905 43.742,0.954 C43.867,0.8185 44.038,0.7485 44.254,0.7485 L57.1485,0.7485 C57.3605,0.7485 57.536,0.8185 57.674,0.954 C57.8105,1.0905 57.878,1.266 57.878,1.4795 L57.878,3.44 C57.878,3.6545 57.8105,3.8245 57.674,3.9505 C57.536,4.0785 57.3605,4.1405 57.1485,4.1405 L47.5575,4.1405 L47.5575,9.2575 L56.503,9.2575 C56.718,9.2575 56.8935,9.3265 57.0305,9.4625 C57.166,9.599 57.2355,9.775 57.2355,9.9885 L57.2355,11.8305 C57.2355,12.0455 57.166,12.2165 57.0305,12.3425 C56.8935,12.47 56.718,12.533 56.503,12.533 L47.5575,12.533 L47.5575,17.826 L57.383,17.826 C57.5945,17.826 57.7705,17.8885 57.907,18.0135 C58.042,18.1425 58.1115,18.3125 58.1115,18.5275 L58.1115,20.5155 C58.1115,20.7305 58.042,20.9005 57.907,21.0255 C57.7705,21.1545 57.5945,21.217 57.383,21.217 L44.254,21.217 C44.0575,21.217 43.8915,21.1485 43.756,21.0115"
                          fill="#1C2933"></path>
                    <path d="M68.0555,21.002 C67.918,20.865 67.8515,20.699 67.8515,20.506 L67.8515,13.926 L60.922,1.6755 C60.8625,1.499 60.834,1.393 60.834,1.3535 C60.834,1.179 60.8965,1.032 61.0245,0.915 C61.1515,0.799 61.293,0.7395 61.448,0.7395 L64.08,0.7395 C64.449,0.7395 64.752,0.925 64.9865,1.296 L69.8975,9.775 L74.84,1.296 C74.916,1.1585 75.0295,1.032 75.174,0.915 C75.3205,0.799 75.501,0.7395 75.717,0.7395 L78.348,0.7395 C78.524,0.7395 78.6685,0.799 78.7855,0.915 C78.905,1.032 78.9615,1.179 78.9615,1.3535 C78.9615,1.4705 78.932,1.5785 78.8735,1.6755 L71.9745,13.926 L71.9745,20.506 C71.9745,20.7205 71.9065,20.8905 71.7685,21.0175 C71.633,21.1445 71.456,21.207 71.243,21.207 L68.5535,21.207 C68.3575,21.207 68.1915,21.1385 68.0555,21.002"
                          fill="#1C2933"></path>
                    <path d="M82.219,21.002 C82.0825,20.865 82.014,20.699 82.014,20.506 L82.014,1.4415 C82.014,1.2275 82.0825,1.056 82.219,0.9295 C82.354,0.8035 82.518,0.7395 82.7155,0.7395 L85.4635,0.7395 C85.678,0.7395 85.848,0.8035 85.977,0.9295 C86.102,1.056 86.1645,1.2275 86.1645,1.4415 L86.1645,17.699 L95.434,17.699 C95.647,17.699 95.823,17.7675 95.9595,17.9025 C96.096,18.039 96.1665,18.205 96.1665,18.4005 L96.1665,20.506 C96.1665,20.699 96.096,20.865 95.9595,21.002 C95.823,21.1385 95.647,21.207 95.434,21.207 L82.7155,21.207 C82.518,21.207 82.354,21.1385 82.219,21.002"
                          fill="#1C2933"></path>
                    <g transform="translate(99.000000, 0.000000)">
                        <path d="M0.393,21.002 C0.2565,20.865 0.188,20.699 0.188,20.506 L0.188,1.4705 C0.188,1.2565 0.2525,1.0815 0.3795,0.945 C0.5025,0.808 0.6745,0.7395 0.891,0.7395 L13.7855,0.7395 C14.0005,0.7395 14.1745,0.808 14.311,0.945 C14.446,1.0815 14.516,1.2565 14.516,1.4705 L14.516,3.43 C14.516,3.6445 14.446,3.815 14.311,3.942 C14.1745,4.068 14.0005,4.131 13.7855,4.131 L4.194,4.131 L4.194,9.248 L13.141,9.248 C13.354,9.248 13.5315,9.3165 13.6665,9.4535 C13.803,9.5905 13.8715,9.7645 13.8715,9.979 L13.8715,11.822 C13.8715,12.036 13.803,12.2065 13.6665,12.3335 C13.5315,12.4595 13.354,12.5235 13.141,12.5235 L4.194,12.5235 L4.194,17.8165 L14.018,17.8165 C14.231,17.8165 14.4085,17.879 14.5435,18.006 C14.68,18.133 14.7505,18.3025 14.7505,18.5175 L14.7505,20.506 C14.7505,20.7205 14.68,20.8905 14.5435,21.0175 C14.4085,21.1445 14.231,21.207 14.018,21.207 L0.891,21.207 C0.694,21.207 0.528,21.1385 0.393,21.002"
                              fill="#1C2933"></path>
                        <path d="M21.5805,20.711 C20.3305,20.1835 19.387,19.492 18.7445,18.635 C18.1,17.7775 17.7605,16.84 17.719,15.828 C17.719,15.672 17.78,15.531 17.895,15.4045 C18.012,15.2775 18.1605,15.213 18.3345,15.213 L20.9945,15.213 C21.2075,15.213 21.3835,15.2615 21.522,15.3595 C21.6565,15.457 21.7855,15.5935 21.901,15.7675 C22.096,16.4315 22.5395,16.9865 23.231,17.4355 C23.9245,17.883 24.8735,18.1075 26.0845,18.1075 C27.446,18.1075 28.475,17.879 29.1665,17.42 C29.86,16.963 30.2055,16.334 30.2055,15.535 C30.2055,15.008 30.03,14.5705 29.678,14.2185 C29.3285,13.869 28.7975,13.5605 28.0865,13.299 C27.3735,13.035 26.315,12.7185 24.9145,12.348 C22.614,11.802 20.9265,11.0805 19.854,10.184 C18.7815,9.288 18.2465,8.001 18.2465,6.324 C18.2465,5.195 18.557,4.1845 19.182,3.2985 C19.807,2.412 20.698,1.7155 21.858,1.2075 C23.018,0.701 24.3675,0.4475 25.9065,0.4475 C27.526,0.4475 28.9225,0.7305 30.102,1.296 C31.2815,1.8615 32.18,2.5675 32.7935,3.4155 C33.4065,4.263 33.735,5.1065 33.772,5.9445 C33.772,6.101 33.7135,6.2425 33.596,6.368 C33.479,6.496 33.3325,6.559 33.1585,6.559 L30.3815,6.559 C29.9515,6.559 29.6605,6.383 29.5045,6.0315 C29.4065,5.409 29.026,4.8865 28.364,4.468 C27.6995,4.0485 26.8815,3.8395 25.9065,3.8395 C24.8345,3.8395 23.9925,4.0445 23.3775,4.453 C22.764,4.8625 22.4575,5.4575 22.4575,6.237 C22.4575,6.763 22.614,7.2015 22.9245,7.5525 C23.235,7.904 23.723,8.211 24.387,8.473 C25.0495,8.7375 26.014,9.0335 27.2815,9.365 C29.016,9.756 30.397,10.194 31.4185,10.681 C32.442,11.169 33.198,11.7825 33.684,12.5235 C34.1725,13.2635 34.4145,14.209 34.4145,15.3595 C34.4145,16.627 34.071,17.7225 33.3775,18.6485 C32.684,19.574 31.7115,20.283 30.4535,20.7675 C29.196,21.256 27.739,21.5 26.0845,21.5 C24.3285,21.5 22.8265,21.2365 21.5805,20.711"
                              fill="#1C2933"></path>
                        <path d="M41.2815,20.711 C40.0335,20.1835 39.0885,19.492 38.446,18.635 C37.8015,17.7775 37.4615,16.84 37.4225,15.828 C37.4225,15.672 37.481,15.531 37.598,15.4045 C37.7155,15.2775 37.86,15.213 38.0355,15.213 L40.696,15.213 C40.9105,15.213 41.0865,15.2615 41.223,15.3595 C41.36,15.457 41.487,15.5935 41.604,15.7675 C41.7975,16.4315 42.2425,16.9865 42.934,17.4355 C43.6255,17.883 44.5745,18.1075 45.7855,18.1075 C47.149,18.1075 48.1765,17.879 48.8695,17.42 C49.561,16.963 49.9065,16.334 49.9065,15.535 C49.9065,15.008 49.731,14.5705 49.3795,14.2185 C49.0315,13.869 48.4985,13.5605 47.7875,13.299 C47.0765,13.035 46.018,12.7185 44.614,12.348 C42.315,11.802 40.6275,11.0805 39.557,10.184 C38.485,9.288 37.948,8.001 37.948,6.324 C37.948,5.195 38.2605,4.1845 38.8855,3.2985 C39.5085,2.412 40.399,1.7155 41.559,1.2075 C42.719,0.701 44.069,0.4475 45.61,0.4475 C47.227,0.4475 48.6255,0.7305 49.803,1.296 C50.985,1.8615 51.8815,2.5675 52.4945,3.4155 C53.108,4.263 53.434,5.1065 53.473,5.9445 C53.473,6.101 53.4165,6.2425 53.2995,6.368 C53.182,6.496 53.0355,6.559 52.86,6.559 L50.0825,6.559 C49.655,6.559 49.362,6.383 49.2055,6.0315 C49.108,5.409 48.727,4.8865 48.067,4.468 C47.401,4.0485 46.5825,3.8395 45.61,3.8395 C44.5375,3.8395 43.694,4.0445 43.0785,4.453 C42.4655,4.8625 42.1585,5.4575 42.1585,6.237 C42.1585,6.763 42.315,7.2015 42.6255,7.5525 C42.938,7.904 43.4245,8.211 44.0885,8.473 C44.7505,8.7375 45.7155,9.0335 46.983,9.365 C48.7175,9.756 50.098,10.194 51.1215,10.681 C52.143,11.169 52.901,11.7825 53.3855,12.5235 C53.8735,13.2635 54.1175,14.209 54.1175,15.3595 C54.1175,16.627 53.772,17.7225 53.0785,18.6485 C52.389,19.574 51.4125,20.283 50.1565,20.7675 C48.899,21.256 47.44,21.5 45.7855,21.5 C44.03,21.5 42.53,21.2365 41.2815,20.711"
                              fill="#1C2933"></path>
                    </g>
                    <path d="M40.548,20.2205 L28.2685,9.504 L28.2685,14.1345 L35.841,20.6875 C35.8615,20.709 35.958,20.801 36.134,20.965 C36.3075,21.133 36.6005,21.215 37.011,21.215 L40.081,21.215 C40.2355,21.215 40.373,21.1565 40.4885,21.039 C40.6055,20.922 40.665,20.7755 40.665,20.6015 C40.665,20.4825 40.626,20.3575 40.548,20.2205"
                          fill="#007FBA"></path>
                    <path d="M40.7795,0.9215 C40.664,0.8045 40.5265,0.746 40.371,0.746 L37.301,0.746 C36.8915,0.746 36.5975,0.829 36.425,0.9945 C36.248,1.1595 36.1515,1.253 36.131,1.2715 L28.927,7.527 L31.59,9.8345 L40.838,1.7405 C40.917,1.604 40.955,1.4765 40.955,1.36 C40.955,1.184 40.8965,1.0385 40.7795,0.9215"
                          fill="#007FBA"></path>
                    <path d="M26.425,1.457 C26.42,1.2525 26.3555,1.0825 26.2225,0.95 C26.087,0.8145 25.911,0.746 25.6965,0.746 L23.0655,0.746 C22.8495,0.746 22.6805,0.8145 22.5535,0.95 C22.4275,1.0875 22.3645,1.2635 22.3645,1.4775 L22.3595,10.519 L26.42,6.976 L26.425,1.457"
                          fill="#007FBA"></path>
                    <path d="M22.3645,13.049 L22.3645,20.5115 C22.3645,20.707 22.4315,20.873 22.5685,21.0095 C22.704,21.1445 22.87,21.213 23.0655,21.213 L25.6965,21.213 C25.911,21.213 26.087,21.1445 26.2225,21.0095 C26.3555,20.879 26.42,20.717 26.425,20.531 L26.425,9.505 L22.3645,13.049"
                          fill="#007FBA"></path>
                </g>
            </g>
        </g>
    </g>
</svg>